<svg width="32" height="32" viewBox="0 0 32 32" fill="none" xmlns="http://www.w3.org/2000/svg">
<rect width="32" height="32" rx="16" fill="#2E52B2"/>
<path d="M5.58691 22.08C5.58691 22.08 5.96931 26.7704 9.59971 29.04C13.2301 31.3096 16.7541 31.1488 19.4901 30.32C22.2261 29.4912 24.0693 27.0184 24.6757 25.8776C25.2821 24.7368 25.4757 23.2056 25.4909 22.3488L25.2765 22.4096C25.2765 22.4096 22.9949 23.9112 21.0181 24.3296L19.8181 26.0992H19.3637L10.8837 25.988L10.6077 25.7912L9.83971 25.2848C9.58691 24.8144 9.33438 24.3443 9.08211 23.8744C8.82611 23.58 6.95091 21.4592 5.79171 21.9584C5.71843 21.9898 5.64957 22.0307 5.58691 22.08Z" fill="url(#paint0_linear_916_115)"/>
<path d="M18.6908 10.3736C17.5228 9.82556 16.5884 9.65356 15.774 9.65356C15.0252 9.65356 14.3772 9.80236 13.7396 9.94796C12.1118 10.3111 10.6719 11.2547 9.68924 12.6024C8.89528 13.6975 8.46874 15.0161 8.47084 16.3688C8.46284 17.4424 8.81484 18.3448 9.51644 19.052C11.0988 20.6456 14.1492 20.98 16.4292 20.98C17.9132 20.98 22.77 20.7272 22.9596 17.4816C23.1244 14.6456 21.2892 11.5912 18.6908 10.3736Z" fill="#000072"/>
<path d="M10.055 9.88159C6.29499 12.336 4.48859 17.1032 5.65899 21.7216C6.48299 22.4768 9.05739 23.8624 9.08379 23.8768C9.09263 23.8818 9.10007 23.8889 9.10539 23.8976L9.91339 25.3008L10.8798 25.9896L13.255 26.0208C13.4915 26.3967 13.8233 26.7033 14.2168 26.9093C14.6103 27.1153 15.0513 27.2134 15.495 27.1936C16.7254 27.1312 17.3734 26.1784 17.4406 26.0736C18.0806 26.092 18.715 26.096 19.3646 26.0992H19.819C19.931 25.9784 20.5774 24.944 20.971 24.3008C20.9788 24.2882 20.9911 24.279 21.0054 24.2752C23.2454 23.736 25.2534 22.3616 25.4814 22.2024C26.943 17.0424 24.8054 11.7272 20.5902 9.41039C17.3046 7.60719 13.1678 7.84799 10.055 9.88159ZM23.0702 17.4816C22.8758 20.8248 17.9382 21.0816 16.4302 21.0816C14.1294 21.0816 11.0478 20.7416 9.43899 19.1208C8.71899 18.3928 8.35259 17.4632 8.36059 16.3592C8.35906 14.9851 8.79288 13.6458 9.59979 12.5336C10.5987 11.1655 12.0615 10.208 13.715 9.83999C15.003 9.54479 16.463 9.21039 18.7382 10.2768C20.007 10.8712 21.1438 11.9176 21.9382 13.2232C22.7518 14.5488 23.1526 16.0632 23.0702 17.484V17.4816Z" fill="url(#paint1_linear_916_115)"/>
<g opacity="0.25">
<path d="M9.57371 25.8344L10.6513 26.5088H12.1713H13.6569C13.592 26.4523 13.531 26.3913 13.4745 26.3264C13.3935 26.2334 13.3214 26.133 13.2593 26.0264C12.8633 26.0216 12.4681 26.0176 12.0721 26.0112C11.6209 26.0032 11.1697 25.9952 10.8841 25.9952C10.7721 25.8768 10.6889 25.8488 10.4945 25.7176C10.2941 25.5833 10.0771 25.4757 9.84891 25.3976C9.84433 25.3955 9.84024 25.3925 9.83691 25.3888C9.83287 25.3855 9.82959 25.3814 9.82731 25.3768L9.01931 23.9728C8.85051 23.8824 6.71611 22.58 5.69531 21.9048C5.73291 22.0608 5.67691 22.4112 5.78011 22.7744C6.29931 22.876 7.56971 23.1984 8.60811 24.3184C9.01877 24.7614 9.34591 25.275 9.57371 25.8344Z" fill="#36A9E1"/>
</g>
<g opacity="0.25">
<path d="M20.1301 26.5104C20.4913 25.8555 20.9643 25.2688 21.5277 24.7768C23.0477 23.4536 24.7741 23.2288 25.4677 23.1768C25.5797 22.8296 25.4477 22.4456 25.4909 22.2968C24.6501 22.7904 22.4933 24.0272 21.0533 24.3768L19.8181 26.0984L17.4397 26.0752C17.3841 26.1699 17.319 26.2586 17.2453 26.34C17.1894 26.4012 17.1289 26.4582 17.0645 26.5104H20.1301Z" fill="#36A9E1"/>
</g>
<g opacity="0.4">
<path d="M7.49817 25.0456C7.60537 25.1128 8.25657 25.28 8.28457 25.3176C8.31257 25.3552 8.89017 26.2864 9.17097 26.5728C9.17097 26.5728 8.53097 25.1328 8.49737 25.096C8.46377 25.0592 7.18457 24.6472 7.18457 24.6752C7.26646 24.8162 7.37262 24.9416 7.49817 25.0456Z" fill="white"/>
</g>
<g opacity="0.4">
<path d="M22.3765 25.3176C22.4045 25.28 23.0557 25.1128 23.1621 25.0456C23.2878 24.9416 23.3942 24.8162 23.4765 24.6752C23.4765 24.6472 22.1965 25.0568 22.1629 25.096C22.1293 25.1352 21.4893 26.5728 21.4893 26.5728C21.7701 26.2864 22.3485 25.3544 22.3765 25.3176Z" fill="white"/>
</g>
<g opacity="0.4">
<path d="M8.24011 15.8176C8.04851 16.4391 8.03408 17.1016 8.19844 17.7308C8.36281 18.36 8.69945 18.9309 9.17051 19.3792C10.8161 21.0024 12.9705 21.5872 16.8249 21.4944C20.6793 21.4016 22.2825 20.4544 23.0241 19.0584C23.7657 17.6624 23.0241 15.852 23.0241 15.852C23.0241 15.852 23.7281 18.5304 21.3441 19.932C18.9601 21.3336 14.4345 21.4112 11.3345 20.252C8.23451 19.0928 8.35691 16.5912 8.24011 15.8176Z" fill="white"/>
</g>
<path d="M13.589 14.3346C13.6881 13.4654 13.3911 12.7178 12.9258 12.6648C12.4605 12.6118 12.003 13.2734 11.9039 14.1426C11.8049 15.0118 12.1018 15.7594 12.5672 15.8124C13.0325 15.8654 13.49 15.2038 13.589 14.3346Z" fill="#08CFFC"/>
<path d="M19.8117 14.8281C19.9107 13.9589 19.6138 13.2113 19.1484 13.1583C18.6831 13.1053 18.2256 13.7669 18.1266 14.6361C18.0275 15.5053 18.3245 16.2529 18.7898 16.306C19.2551 16.359 19.7126 15.6973 19.8117 14.8281Z" fill="#08CFFC"/>
<g opacity="0.25">
<path d="M6.30273 24.58C6.30273 24.58 9.42273 30.0672 15.5707 30.0672C21.7187 30.0672 24.8795 25.2848 24.8795 25.2848C24.8795 25.2848 23.1771 30.8624 16.0595 30.8624C8.94193 30.8624 6.83393 26.3312 6.30273 24.6736" fill="#000072"/>
</g>
<path d="M16.4299 21.2072C14.1059 21.2072 10.9899 20.8608 9.35314 19.2112C8.60594 18.4584 8.23314 17.5008 8.24034 16.3632C8.23795 14.9623 8.67963 13.5966 9.50194 12.4624C10.5178 11.0692 12.0063 10.0937 13.6891 9.7184C14.9955 9.4192 16.4763 9.0784 18.7899 10.164C20.0795 10.768 21.2347 11.8312 22.0435 13.156C22.8675 14.5064 23.2755 16.0464 23.1915 17.4912C23.1115 18.8712 22.2547 19.8912 20.6459 20.5256C19.1411 21.12 17.3603 21.2072 16.4299 21.2072ZM13.7675 10.0616C12.1681 10.4176 10.7534 11.3446 9.78834 12.6688C9.00856 13.7435 8.58981 15.0378 8.59234 16.3656C8.58434 17.4056 8.92434 18.28 9.60274 18.9632C11.1555 20.5272 14.1723 20.8552 16.4299 20.8552C17.8875 20.8552 22.6563 20.6112 22.8395 17.4712C23.0019 14.6848 21.2003 11.68 18.6403 10.48C16.4371 9.4472 15.0795 9.76 13.7675 10.0592V10.0616Z" fill="#000072"/>
<path d="M15.0086 15.3744L16.2086 15.4544C16.2509 15.457 16.292 15.4696 16.3285 15.4912C16.3649 15.5128 16.3957 15.5428 16.4183 15.5787C16.4409 15.6146 16.4546 15.6553 16.4584 15.6975C16.4621 15.7398 16.4557 15.7823 16.4398 15.8216C16.3038 16.148 16.0294 16.5864 15.5326 16.5648C15.0358 16.5432 14.8182 16.0584 14.7326 15.7096C14.7217 15.6686 14.7207 15.6255 14.7298 15.5841C14.7388 15.5426 14.7576 15.5039 14.7846 15.4711C14.8115 15.4384 14.8459 15.4125 14.8849 15.3957C14.9238 15.3789 14.9662 15.3716 15.0086 15.3744Z" fill="#08CFFC"/>
<path d="M5.78503 20.7689C5.62197 20.4384 5.56444 20.0659 5.62023 19.7017C5.32877 19.9607 5.09419 20.2774 4.9313 20.6317C4.7684 20.986 4.68073 21.3702 4.67383 21.7601C4.75221 21.5101 4.89697 21.2861 5.09267 21.112C5.28837 20.9378 5.52766 20.8201 5.78503 20.7713V20.7689Z" fill="url(#paint2_linear_916_115)"/>
<path d="M9.51069 22.8487C9.34509 23.4519 9.18189 24.5335 9.68989 25.5911C10.1571 25.8079 10.5403 25.7871 10.8267 25.5287C11.3067 25.0951 11.4123 24.0559 11.1859 23.4175C10.8995 22.6095 9.72749 22.8047 9.51069 22.8487Z" fill="#213AF4"/>
<path d="M9.47718 23.0312C9.47703 23.0226 9.47895 23.0141 9.48278 23.0064C9.51272 22.8684 9.54957 22.7319 9.59318 22.5976C8.79318 22.2672 8.15318 21.7336 7.71878 21.3784C7.47078 21.1728 7.27398 21.0112 7.16998 20.9864C6.88678 20.9192 6.38518 21.2016 6.35318 21.22C6.29558 21.2648 5.01238 22.272 4.94038 23.6128C4.83798 24.1792 5.17238 25.2856 5.17558 25.2968C5.17878 25.308 5.59958 26.2928 7.26118 26.2928H7.33398C8.83398 26.268 9.61798 25.9272 9.81398 25.8288C9.23798 24.7696 9.34518 23.6512 9.47718 23.0312Z" fill="url(#paint3_linear_916_115)"/>
<path d="M6.3068 21.28C6.09787 21.1482 5.91993 20.9727 5.7852 20.7656C5.49361 20.8239 5.2263 20.9686 5.018 21.1808C4.86054 21.3429 4.74279 21.5392 4.674 21.7544C4.64292 22.3399 4.73222 22.9256 4.9364 23.4752C5.1076 22.3416 6.042 21.5008 6.3068 21.28Z" fill="#213AF4"/>
<g opacity="0.25">
<path d="M11.274 24.5336C11.3203 24.2138 11.3065 23.8882 11.2332 23.5736L11.1788 23.4832C11.0644 23.8888 9.73402 24.7264 9.37402 24.484C9.41301 24.8303 9.50389 25.1687 9.64362 25.488C10.706 25.6256 11.1404 24.9344 11.274 24.5336Z" fill="#00116B"/>
</g>
<g opacity="0.25">
<path d="M4.674 21.7599C4.64292 22.3454 4.73222 22.9311 4.9364 23.4807C5.01899 23.005 5.21067 22.5548 5.4964 22.1655C5.4171 22.0047 5.35153 21.8374 5.3004 21.6655C5.23949 21.4604 5.19903 21.2498 5.1796 21.0367C4.94779 21.2249 4.77345 21.4744 4.6764 21.7567L4.674 21.7599Z" fill="#000072"/>
</g>
<g opacity="0.25">
<path d="M5.22663 20.132C4.87551 20.6029 4.68205 21.1726 4.67383 21.76C4.72679 21.6046 4.80343 21.4583 4.90103 21.3264C4.98073 21.2188 5.07344 21.1215 5.17703 21.0368C5.14772 20.8551 5.14207 20.6703 5.16023 20.4872C5.17206 20.3671 5.19428 20.2482 5.22663 20.132Z" fill="#000072"/>
</g>
<g opacity="0.25">
<path d="M7.33318 26.02C8.13383 26.002 8.9206 25.8072 9.63718 25.4496C9.49473 25.0868 9.40919 24.7041 9.38358 24.3152C9.34888 23.9835 9.36289 23.6485 9.42518 23.3208C9.42518 23.3208 8.72438 24.3784 7.36678 24.6056C6.15478 24.808 5.11958 24.0656 4.94518 23.5488C4.94518 23.5696 4.94518 23.5912 4.94038 23.6128C4.83798 24.1792 5.17238 25.2856 5.17558 25.2968C5.25815 25.4594 5.37239 25.6038 5.51158 25.7216C5.80598 25.8616 6.39958 26.0496 7.33318 26.02Z" fill="#36A9E1"/>
</g>
<g opacity="0.4">
<path d="M6.94181 21.3856C7.11221 21.4248 8.36501 22.4768 9.53061 22.8112C9.55621 22.716 9.57861 22.6432 9.59381 22.5976C8.79381 22.2672 8.15381 21.7336 7.71941 21.3784C7.47141 21.1728 7.27461 21.0112 7.17061 20.9864C6.88741 20.9192 6.38581 21.2016 6.35381 21.22C6.21251 21.3346 6.07888 21.4583 5.95381 21.5904L5.61621 22.0192C5.61621 22.0192 6.77141 21.3456 6.94181 21.3856Z" fill="white"/>
</g>
<g opacity="0.4">
<path d="M5.78472 20.7689C5.68961 20.5749 5.63 20.3654 5.60872 20.1505C5.59355 20.001 5.59731 19.8502 5.61992 19.7017C5.56952 19.7545 5.51832 19.8073 5.46792 19.8617C5.43992 19.8905 5.41272 19.9201 5.38792 19.9497C5.37268 20.2557 5.41279 20.5619 5.50632 20.8537L5.78472 20.7689Z" fill="white"/>
</g>
<g opacity="0.4">
<path d="M11.0659 23.1936C10.6611 22.6504 9.70595 22.8096 9.50995 22.8488C9.48435 22.9424 9.45875 23.0472 9.43555 23.1608C9.64595 23.12 10.5819 22.9696 11.0659 23.1936Z" fill="white"/>
</g>
<g opacity="0.4">
<path d="M5.78453 20.7688C5.74293 20.7779 5.69893 20.7891 5.65253 20.8024C5.59893 20.8184 5.54853 20.8352 5.50293 20.8528C5.5751 20.9853 5.66264 21.1088 5.76373 21.2208C5.85541 21.3227 5.95757 21.4147 6.06853 21.4952C6.16773 21.4 6.25093 21.328 6.30853 21.2832C6.09873 21.1516 5.91996 20.9761 5.78453 20.7688Z" fill="white"/>
</g>
<path d="M25.2803 21.0111C25.3934 20.7789 25.4564 20.5254 25.4651 20.2671C25.4682 20.1601 25.4615 20.053 25.4451 19.9471C25.7356 20.2057 25.9696 20.5216 26.1325 20.8748C26.2953 21.228 26.3835 21.6111 26.3915 21.9999C26.3132 21.7499 26.1684 21.5259 25.9727 21.3518C25.777 21.1776 25.5377 21.0599 25.2803 21.0111Z" fill="url(#paint4_linear_916_115)"/>
<path d="M21.5548 23.0912C21.7196 23.6944 21.8828 24.776 21.3748 25.8336C20.9076 26.0504 20.5252 26.0304 20.238 25.7712C19.758 25.3376 19.6524 24.2984 19.8788 23.66C20.1652 22.852 21.3372 23.0472 21.5548 23.0912Z" fill="#213AF4"/>
<path d="M21.5864 23.2736C21.5866 23.265 21.5847 23.2565 21.5808 23.2488C21.5509 23.1108 21.5141 22.9744 21.4704 22.84C22.2704 22.5096 22.9104 21.976 23.3448 21.6208C23.5936 21.4152 23.7896 21.2536 23.8936 21.2288C24.1768 21.1616 24.6784 21.444 24.7112 21.4624C24.768 21.5072 26.0512 22.5144 26.1232 23.8552V23.8592C26.2248 24.4256 25.8904 25.532 25.8872 25.5432C25.884 25.5544 25.4616 26.532 23.8008 26.532H23.728C22.2288 26.5072 21.444 26.1664 21.248 26.068C21.8256 25.012 21.7184 23.8936 21.5864 23.2736Z" fill="url(#paint5_linear_916_115)"/>
<path d="M24.7588 21.5256C24.9675 21.3938 25.1452 21.2183 25.2796 21.0112C25.5366 21.0611 25.7755 21.1793 25.9711 21.3532C26.1667 21.5272 26.312 21.7506 26.3916 22C26.4218 22.5855 26.3325 23.171 26.1292 23.7208C25.9572 22.584 25.0228 21.7432 24.7588 21.5256Z" fill="#213AF4"/>
<g opacity="0.25">
<path d="M19.7904 24.776C19.7441 24.4562 19.758 24.1307 19.8312 23.816L19.8856 23.7256C20 24.1312 21.3304 24.9688 21.6904 24.7264C21.6515 25.0727 21.5606 25.4111 21.4208 25.7304C20.3584 25.868 19.924 25.1768 19.7904 24.776Z" fill="#00116B"/>
</g>
<g opacity="0.25">
<path d="M26.3908 22.0001C26.421 22.5855 26.3317 23.171 26.1284 23.7209C26.0454 23.2452 25.8537 22.7951 25.5684 22.4057C25.6477 22.2448 25.7132 22.0775 25.7644 21.9057C25.8253 21.7006 25.8657 21.4899 25.8852 21.2769C26.0263 21.3924 26.1469 21.5308 26.242 21.6865C26.3021 21.7856 26.352 21.8907 26.3908 22.0001Z" fill="#000072"/>
</g>
<g opacity="0.25">
<path d="M25.8398 20.3744C26.1892 20.8452 26.382 21.4138 26.391 22C26.2931 21.7179 26.1186 21.4686 25.887 21.28C25.9164 21.0983 25.922 20.9135 25.9038 20.7304C25.8928 20.6101 25.8714 20.491 25.8398 20.3744Z" fill="#000072"/>
</g>
<g opacity="0.29">
<path d="M23.7308 26.2624C22.9301 26.2441 22.1434 26.0494 21.4268 25.692C21.569 25.3299 21.6545 24.9481 21.6804 24.56C21.7155 24.2282 21.7015 23.8932 21.6388 23.5656C21.6388 23.5656 22.3396 24.6232 23.6972 24.8504C24.9092 25.0528 25.9436 24.3104 26.1188 23.7936C26.1188 23.8144 26.1188 23.836 26.1236 23.8576V23.8616C26.2252 24.428 25.8908 25.5344 25.8876 25.5456C25.8053 25.7084 25.6911 25.8528 25.5516 25.9704C25.258 26.104 24.6676 26.292 23.7308 26.2624Z" fill="#36A9E1"/>
</g>
<g opacity="0.4">
<path d="M24.1227 21.628C23.9523 21.6672 22.6995 22.7192 21.5339 23.0536C21.5083 22.9584 21.4859 22.8856 21.4707 22.84C22.2707 22.5096 22.9107 21.976 23.3451 21.6208C23.5939 21.4152 23.7899 21.2536 23.8939 21.2288C24.1771 21.1616 24.6787 21.444 24.7115 21.4624C24.8525 21.5773 24.9861 21.701 25.1115 21.8328L25.4491 22.2616C25.4491 22.2616 24.2931 21.588 24.1227 21.628Z" fill="white"/>
</g>
<g opacity="0.4">
<path d="M25.2803 21.0112C25.3753 20.8171 25.4352 20.6077 25.4571 20.3928C25.472 20.2433 25.468 20.0925 25.4451 19.944C25.4963 19.9968 25.5467 20.0496 25.5971 20.104C25.6251 20.1328 25.6523 20.1624 25.6771 20.192C25.6832 20.3107 25.6808 20.4296 25.6699 20.548C25.6534 20.7342 25.6164 20.9179 25.5595 21.096L25.2803 21.0112Z" fill="white"/>
</g>
<g opacity="0.4">
<path d="M20 23.4399C20.4056 22.8967 21.36 23.0559 21.5568 23.0951C21.5824 23.1887 21.6072 23.2935 21.6304 23.4079C21.4176 23.3599 20.48 23.2119 20 23.4399Z" fill="white"/>
</g>
<g opacity="0.4">
<path d="M25.28 21.0112C25.3216 21.0203 25.3656 21.0315 25.412 21.0448C25.4664 21.0608 25.516 21.0776 25.5624 21.0952C25.4229 21.3473 25.2298 21.5657 24.9968 21.7352C24.8968 21.64 24.8136 21.568 24.7568 21.5232C24.9662 21.3923 25.1447 21.2177 25.28 21.0112Z" fill="white"/>
</g>
<path d="M15.6749 6.93197C16.3949 6.61837 15.9733 1.77036 13.5021 0.779965C12.7301 0.471165 11.6325 0.487165 11.3573 0.966365C11.1797 1.27596 11.3493 1.76636 12.7925 3.66796C14.5141 5.93196 15.3749 7.06397 15.6749 6.93197Z" fill="url(#paint6_linear_916_115)"/>
<path d="M15.8511 9.19205C16.3385 9.19205 16.7335 8.79698 16.7335 8.30965C16.7335 7.82231 16.3385 7.42725 15.8511 7.42725C15.3638 7.42725 14.9688 7.82231 14.9688 8.30965C14.9688 8.79698 15.3638 9.19205 15.8511 9.19205Z" fill="url(#paint7_linear_916_115)"/>
<path d="M13.398 25.0529C13.4908 25.8777 14.1628 26.5921 15.066 26.7841C14.801 26.7923 14.5374 26.742 14.294 26.6369C13.4412 26.2633 13.2268 25.3417 13.2068 25.2465C13.1804 25.1249 13.0172 24.2977 13.586 23.5785C14.206 22.7937 15.1572 22.8177 15.2548 22.8217C14.0796 22.9905 13.2796 24.0305 13.398 25.0529Z" fill="#5689B3"/>
<path d="M15.4568 26.8224C16.5644 26.8224 17.4624 25.9244 17.4624 24.8168C17.4624 23.7091 16.5644 22.8112 15.4568 22.8112C14.3491 22.8112 13.4512 23.7091 13.4512 24.8168C13.4512 25.9244 14.3491 26.8224 15.4568 26.8224Z" fill="#C9FFEF"/>
<path d="M15.4014 24.9416C15.6414 24.8736 15.935 24.7088 15.9174 24.416C15.9022 24.16 15.6174 23.9944 15.3782 24.0288C14.8206 24.108 14.675 25.1432 15.4014 24.9416Z" fill="white"/>
<path d="M16.9735 24.9177C16.8433 25.2488 16.6134 25.5312 16.3155 25.7258C16.0176 25.9204 15.6665 26.0175 15.311 26.0036C14.9555 25.9897 14.6131 25.8655 14.3313 25.6483C14.0495 25.4311 13.8422 25.1316 13.7383 24.7913C13.7367 25.2574 13.9077 25.7077 14.2183 26.0553C14.3335 26.1809 14.7039 26.5825 15.3055 26.6113C15.7061 26.6214 16.0952 26.4767 16.3919 26.2073C16.9487 25.7225 16.9711 25.0401 16.9735 24.9177Z" fill="#A4EDE0"/>
<defs>
<linearGradient id="paint0_linear_916_115" x1="15.5389" y1="21.8824" x2="15.5389" y2="30.8816" gradientUnits="userSpaceOnUse">
<stop stop-color="white"/>
<stop offset="1" stop-color="#B5B8DC"/>
</linearGradient>
<linearGradient id="paint1_linear_916_115" x1="15.6222" y1="8.19519" x2="15.6222" y2="27.1968" gradientUnits="userSpaceOnUse">
<stop stop-color="white"/>
<stop offset="1" stop-color="#B5B8DC"/>
</linearGradient>
<linearGradient id="paint2_linear_916_115" x1="4.67383" y1="20.7297" x2="5.78503" y2="20.7297" gradientUnits="userSpaceOnUse">
<stop stop-color="white"/>
<stop offset="1" stop-color="#B5B8DC"/>
</linearGradient>
<linearGradient id="paint3_linear_916_115" x1="4.91958" y1="23.6344" x2="9.81398" y2="23.6344" gradientUnits="userSpaceOnUse">
<stop stop-color="white"/>
<stop offset="1" stop-color="#B5B8DC"/>
</linearGradient>
<linearGradient id="paint4_linear_916_115" x1="26.3915" y1="20.9719" x2="25.2795" y2="20.9719" gradientUnits="userSpaceOnUse">
<stop stop-color="white"/>
<stop offset="1" stop-color="#B5B8DC"/>
</linearGradient>
<linearGradient id="paint5_linear_916_115" x1="26.144" y1="23.8768" x2="21.2496" y2="23.8768" gradientUnits="userSpaceOnUse">
<stop stop-color="white"/>
<stop offset="1" stop-color="#B5B8DC"/>
</linearGradient>
<linearGradient id="paint6_linear_916_115" x1="11.2997" y1="3.75756" x2="15.9909" y2="3.75756" gradientUnits="userSpaceOnUse">
<stop stop-color="white"/>
<stop offset="1" stop-color="#B5B8DC"/>
</linearGradient>
<linearGradient id="paint7_linear_916_115" x1="15.8511" y1="9.19125" x2="15.8511" y2="7.42645" gradientUnits="userSpaceOnUse">
<stop stop-color="#AAFFFF"/>
<stop offset="1" stop-color="#B5B8DC"/>
</linearGradient>
</defs>
</svg>
