<svg width="1383" height="1495" viewBox="0 0 1383 1495" fill="none" xmlns="http://www.w3.org/2000/svg">
<g clip-path="url(#clip0_956_80)">
<mask id="mask0_956_80" style="mask-type:luminance" maskUnits="userSpaceOnUse" x="0" y="0" width="1383" height="1495">
<path d="M0 1495H1383V0H0V1495Z" fill="white"/>
</mask>
<g mask="url(#mask0_956_80)">
<g opacity="0.5">
<g filter="url(#filter0_f_956_80)">
<path d="M371.173 769.387C606.529 538.294 852.287 581.551 945.747 632.066C1334.16 712.077 1062.96 888.852 822.491 1156.41C582.026 1423.96 -281.941 1380.33 -259.882 1099.42C-237.808 818.518 76.9814 1058.25 371.173 769.387Z" fill="#2C7BE5" fill-opacity="0.74"/>
</g>
<g opacity="0.5" filter="url(#filter1_f_956_80)">
<path d="M370.021 762.116C46.172 716.489 -117.702 837.918 -159.149 904.337C-411.018 1103.17 -92.6566 1102.56 257.48 1167.86C607.631 1233.16 1250.14 870.708 1060.99 712.401C871.837 554.094 774.839 819.151 370.021 762.116Z" fill="#77FD95" fill-opacity="0.5"/>
</g>
</g>
</g>
</g>
<defs>
<filter id="filter0_f_956_80" x="-563.157" y="289.14" width="2007.02" height="1349.03" filterUnits="userSpaceOnUse" color-interpolation-filters="sRGB">
<feFlood flood-opacity="0" result="BackgroundImageFix"/>
<feBlend mode="normal" in="SourceGraphic" in2="BackgroundImageFix" result="shape"/>
<feGaussianBlur stdDeviation="151.43" result="effect1_foregroundBlur_956_80"/>
</filter>
<filter id="filter1_f_956_80" x="-474.383" y="436.424" width="1794.35" height="964.056" filterUnits="userSpaceOnUse" color-interpolation-filters="sRGB">
<feFlood flood-opacity="0" result="BackgroundImageFix"/>
<feBlend mode="normal" in="SourceGraphic" in2="BackgroundImageFix" result="shape"/>
<feGaussianBlur stdDeviation="112.418" result="effect1_foregroundBlur_956_80"/>
</filter>
<clipPath id="clip0_956_80">
<rect width="1383" height="1495" fill="white" transform="matrix(-1 0 0 1 1383 0)"/>
</clipPath>
</defs>
</svg>
