<svg id="Capa_1" data-name="Capa 1" xmlns="http://www.w3.org/2000/svg" xmlns:xlink="http://www.w3.org/1999/xlink" viewBox="0 0 400 400"><defs><style>.cls-1{mask:url(#mask);filter:url(#luminosity-noclip-3);}.cls-2,.cls-4{mix-blend-mode:multiply;}.cls-2{fill:url(#radial-gradient);}.cls-3{mask:url(#mask-2);filter:url(#luminosity-noclip-4);}.cls-4{fill:url(#radial-gradient-2);}.cls-5{fill:url(#linear-gradient);}.cls-6{fill:#000072;}.cls-7{fill:url(#linear-gradient-2);}.cls-8{fill:none;}.cls-9{opacity:0.25;}.cls-10{fill:#36a9e1;}.cls-11{opacity:0.4;}.cls-12{fill:#fff;}.cls-13{fill:#08cffc;}.cls-14{mask:url(#mask-3);}.cls-15{fill:url(#radial-gradient-3);}.cls-16{mask:url(#mask-4);}.cls-17{fill:url(#radial-gradient-4);}.cls-18{fill:url(#linear-gradient-3);}.cls-19{fill:#213af4;}.cls-20{fill:url(#linear-gradient-4);}.cls-21{fill:#00116b;}.cls-22{fill:url(#linear-gradient-5);}.cls-23{fill:url(#linear-gradient-6);}.cls-24{opacity:0.29;}.cls-25{fill:url(#linear-gradient-7);}.cls-26{fill:url(#Degradado_sin_nombre_102);}.cls-27{fill:#5689b3;}.cls-28{fill:#c9ffef;}.cls-29{fill:#a4ede0;}.cls-30{filter:url(#luminosity-noclip-2);}.cls-31{filter:url(#luminosity-noclip);}</style><filter id="luminosity-noclip" x="113.94" y="-8392" width="91.08" height="32766" filterUnits="userSpaceOnUse" color-interpolation-filters="sRGB"><feFlood flood-color="#fff" result="bg"/><feBlend in="SourceGraphic" in2="bg"/></filter><mask id="mask" x="113.94" y="-8392" width="91.08" height="32766" maskUnits="userSpaceOnUse"><g class="cls-31"/></mask><radialGradient id="radial-gradient" cx="156.56" cy="178.62" r="51.94" gradientTransform="matrix(0.11, 1.1, -0.99, 0.13, 318.71, -18.53)" gradientUnits="userSpaceOnUse"><stop offset="0" stop-color="#fff"/><stop offset="0.15" stop-color="#c2c2c2"/><stop offset="0.43" stop-color="#5b5b5b"/><stop offset="0.62" stop-color="#191919"/><stop offset="0.71"/></radialGradient><filter id="luminosity-noclip-2" x="191.59" y="-8392" width="91.08" height="32766" filterUnits="userSpaceOnUse" color-interpolation-filters="sRGB"><feFlood flood-color="#fff" result="bg"/><feBlend in="SourceGraphic" in2="bg"/></filter><mask id="mask-2" x="191.59" y="-8392" width="91.08" height="32766" maskUnits="userSpaceOnUse"><g class="cls-30"/></mask><radialGradient id="radial-gradient-2" cx="226.44" cy="182.13" r="51.94" gradientTransform="matrix(0.11, 1.1, -0.99, 0.13, 391.93, -91.78)" xlink:href="#radial-gradient"/><linearGradient id="linear-gradient" x1="194.24" y1="273.53" x2="194.24" y2="386.02" gradientUnits="userSpaceOnUse"><stop offset="0" stop-color="#fff"/><stop offset="1" stop-color="#b5b8dc"/></linearGradient><linearGradient id="linear-gradient-2" x1="195.28" y1="102.44" x2="195.28" y2="339.96" xlink:href="#linear-gradient"/><filter id="luminosity-noclip-3" x="113.94" y="129.17" width="91.08" height="97.66" filterUnits="userSpaceOnUse" color-interpolation-filters="sRGB"><feFlood flood-color="#fff" result="bg"/><feBlend in="SourceGraphic" in2="bg"/></filter><mask id="mask-3" x="113.94" y="129.17" width="91.08" height="97.66" maskUnits="userSpaceOnUse"><g class="cls-1"><ellipse class="cls-2" cx="159.48" cy="178" rx="48.87" ry="45.49" transform="translate(-35.44 316.3) rotate(-83.5)"/></g></mask><radialGradient id="radial-gradient-3" cx="156.56" cy="178.62" r="51.94" gradientTransform="matrix(0.11, 1.1, -0.99, 0.13, 318.71, -18.53)" gradientUnits="userSpaceOnUse"><stop offset="0" stop-color="#08cffc"/><stop offset="0.71" stop-color="#08cffc"/></radialGradient><filter id="luminosity-noclip-4" x="191.59" y="133.57" width="91.08" height="97.66" filterUnits="userSpaceOnUse" color-interpolation-filters="sRGB"><feFlood flood-color="#fff" result="bg"/><feBlend in="SourceGraphic" in2="bg"/></filter><mask id="mask-4" x="191.59" y="133.57" width="91.08" height="97.66" maskUnits="userSpaceOnUse"><g class="cls-3"><ellipse class="cls-4" cx="237.13" cy="182.4" rx="48.87" ry="45.49" transform="translate(29.04 397.35) rotate(-83.5)"/></g></mask><radialGradient id="radial-gradient-4" cx="226.44" cy="182.13" r="51.94" gradientTransform="matrix(0.11, 1.1, -0.99, 0.13, 391.93, -91.78)" xlink:href="#radial-gradient-3"/><linearGradient id="linear-gradient-3" x1="58.42" y1="259.12" x2="72.31" y2="259.12" xlink:href="#linear-gradient"/><linearGradient id="linear-gradient-4" x1="61.5" y1="295.43" x2="122.68" y2="295.43" xlink:href="#linear-gradient"/><linearGradient id="linear-gradient-5" x1="508.87" y1="262.15" x2="522.77" y2="262.15" gradientTransform="matrix(-1, 0, 0, 1, 838.76, 0)" xlink:href="#linear-gradient"/><linearGradient id="linear-gradient-6" x1="511.96" y1="298.46" x2="573.14" y2="298.46" gradientTransform="matrix(-1, 0, 0, 1, 838.76, 0)" xlink:href="#linear-gradient"/><linearGradient id="linear-gradient-7" x1="141.25" y1="46.97" x2="199.89" y2="46.97" xlink:href="#linear-gradient"/><linearGradient id="Degradado_sin_nombre_102" x1="152.68" y1="5.4" x2="174.74" y2="5.4" gradientTransform="translate(192.74 267.57) rotate(-90)" gradientUnits="userSpaceOnUse"><stop offset="0" stop-color="#aff"/><stop offset="1" stop-color="#b5b8dc"/></linearGradient></defs><path class="cls-5" d="M69.84,276s4.78,58.63,50.16,87,89.43,26.36,123.63,16,57.24-41.27,64.82-55.53,10-33.4,10.19-44.11l-2.68.76s-28.52,18.77-53.23,24l-15,22.12h-5.68l-106-1.39-3.45-2.46L123,316.06q-4.74-8.82-9.47-17.63c-3.2-3.68-26.64-30.19-41.13-23.95A11.4,11.4,0,0,0,69.84,276Z"/><path class="cls-6" d="M233.64,129.67c-14.6-6.85-26.28-9-36.46-9-9.36,0-17.46,1.86-25.43,3.68a85.77,85.77,0,0,0-50.63,33.18,80,80,0,0,0-15.23,47.08c-.1,13.42,4.3,24.7,13.07,33.54,19.78,19.92,57.91,24.1,86.41,24.1,18.55,0,79.26-3.16,81.63-43.73C289.06,183.07,266.12,144.89,233.64,129.67Z"/><path class="cls-7" d="M125.69,123.52c-47,30.68-69.58,90.27-54.95,148,10.3,9.44,42.48,26.76,42.81,26.94a.75.75,0,0,1,.27.26l10.1,17.54L136,324.87l29.69.39a31.42,31.42,0,0,0,28,14.66c15.38-.78,23.48-12.69,24.32-14,8,.23,15.93.28,24.05.32h5.68c1.4-1.51,9.48-14.44,14.4-22.48a.73.73,0,0,1,.43-.32c28-6.74,53.1-23.92,55.95-25.91,18.27-64.5-8.45-130.94-61.14-159.9C216.31,95.09,164.6,98.1,125.69,123.52Zm162.69,95c-2.43,41.79-64.15,45-83,45-28.76,0-67.28-4.25-87.39-24.51-9-9.1-13.58-20.72-13.48-34.52A81.28,81.28,0,0,1,120,156.67,87.13,87.13,0,0,1,171.44,123c16.1-3.69,34.35-7.87,62.79,5.46,15.86,7.43,30.07,20.51,40,36.83C284.4,181.86,289.41,200.79,288.38,218.55Z"/><path class="cls-8" d="M302.74,307.79h0Z"/><path class="cls-8" d="M196.52,340.05l-2.84-.13,1.17.1Z"/><path class="cls-8" d="M267.85,331.06s-7.91,10.09-24.82,14.79-48.18,6.71-48.18,6.71-31.26-2-48.17-6.71-24.83-14.79-24.83-14.79L114.75,321c-3.62-1-6.39-1.92-8.06-2.47,5,8.39,10.72,15.75,17.07,20.74,12.92,10.14,38.65,16.69,68.84,17.52,29.23.81,55.62-4,68.86-12.55,7.44-4.8,14.29-13.44,20.32-23.52-2.18.87-4.45,1.68-6.76,2.44Z"/><path class="cls-8" d="M143.45,300.33a16.1,16.1,0,0,1,1.64-2.44A7.65,7.65,0,0,0,143.45,300.33Z"/><path class="cls-8" d="M153.67,357.57l0,0s0,0,0,0c1.85,2.15,7.18,7.79,9.49,8.09,3.66.48,46,4.09,52.85,1.91a18.75,18.75,0,0,0,9.69-6.69h0v0c.11-.15,10.78-15.33,15-33.94-.59-2.13-7.32-25.41-16.14-28.35-3.71-1.23-16.23-2-29.72-2.38v5.21s-45.82-.33-46.49,0-10.34,18.39-10.34,18.39a4.62,4.62,0,0,1-.22-1.56c-.48,2.05-.88,3.88-1.16,5.24C137,342.54,153.51,357.42,153.67,357.57Zm6.66-11.91c12.17,8.41,28.44,7.6,28.44,7.6s16.16,2,28.33-6.38,18.42-22.7,18.42-22.7c-1.18,8.7-3.39,14.28-8,23.77-1,2.14-2.48,4.42-3.89,6.84A18.8,18.8,0,0,1,208,364.18l-19.22.62L172.24,363a23.78,23.78,0,0,1-16-8.75,64.9,64.9,0,0,1-4.38-6.26c-4.43-7.19-8.68-15.07-9.86-23.77C142,324.18,148.16,337.25,160.33,345.66Z"/><path class="cls-8" d="M204.76,99c-20.15,0-43.33,9.07-65.27,25.54a183.45,183.45,0,0,0-51.6,60.34c-23,44-17.66,83.31-17.15,86.65,10.3,9.44,42.48,26.76,42.81,26.94a.75.75,0,0,1,.27.26l10.1,17.54,11.62,6.19c.28-1.3.78-3.59,1.44-6.29h0l-9.71-4.75-9-18.78L75.82,267.87c-.18-3.79,2.86-9.83,2.86-9.83,8.71,7.12,34.54,18.09,34.54,18.09l1.07-13.24c29.71,24.16,80.65,23.35,80.65,23.35s50.95.81,80.65-23.35l1.07,13.24s25.83-11,34.54-18.09c0,0,.56,10.9.38,14.69L259.5,297l-13,23.62-6,.76c.76,2.26,1.28,4,1.52,4.86h5.68c1.4-1.51,9.48-14.44,14.4-22.48a.73.73,0,0,1,.43-.32c28-6.74,53.1-23.92,55.95-25.91,3.17-51.58-16.23-105-51.93-143.08C246,112.57,222.33,99,204.76,99Zm83.62,119.59c-2.43,41.79-64.15,45-83,45-28.76,0-67.28-4.25-87.39-24.51-9-9.1-13.58-20.72-13.48-34.52A81.28,81.28,0,0,1,120,156.67,87.13,87.13,0,0,1,171.44,123c16.1-3.69,34.35-7.87,62.79,5.46,15.86,7.43,30.07,20.51,40,36.83C284.4,181.86,289.41,200.79,288.38,218.55Z"/><path class="cls-8" d="M233.64,129.67c-14.6-6.85-26.28-9-36.46-9-9.36,0-17.46,1.86-25.43,3.68a85.77,85.77,0,0,0-50.63,33.18,80,80,0,0,0-15.23,47.08c-.1,13.42,4.3,24.7,13.07,33.54,19.78,19.92,57.91,24.1,86.41,24.1,18.55,0,79.26-3.16,81.63-43.73C289.06,183.07,266.12,144.89,233.64,129.67Z"/><g class="cls-9"><path class="cls-10" d="M119.67,322.93l13.47,8.43,19,0,18.57,0a23.31,23.31,0,0,1-2.28-2.28,24.43,24.43,0,0,1-2.69-3.75c-4.95-.06-9.89-.11-14.84-.19-5.64-.1-11.28-.2-14.85-.2-1.4-1.48-2.44-1.83-4.87-3.47a34.67,34.67,0,0,0-8.07-4,.44.44,0,0,1-.15-.11.44.44,0,0,1-.12-.15l-10.1-17.55c-2.11-1.13-28.79-17.41-41.55-25.85.47,1.95-.23,6.33,1.06,10.87,6.49,1.27,22.37,5.3,35.35,19.3A62.6,62.6,0,0,1,119.67,322.93Z"/></g><g class="cls-9"><path class="cls-10" d="M251.63,331.38a80.22,80.22,0,0,1,17.47-21.67c19-16.54,40.58-19.35,49.25-20,1.4-4.34-.25-9.14.29-11-10.51,6.17-37.47,21.63-55.47,26l-15.44,21.52L218,325.94a20,20,0,0,1-2.43,3.31,20.54,20.54,0,0,1-2.26,2.13Z"/></g><g class="cls-11"><path class="cls-12" d="M93.73,313.07c1.34.84,9.48,2.93,9.83,3.4s7.57,12.11,11.08,15.69c0,0-8-18-8.42-18.46s-16.41-5.61-16.41-5.26A17.29,17.29,0,0,0,93.73,313.07Z"/></g><g class="cls-11"><path class="cls-12" d="M279.71,316.47c.35-.47,8.49-2.56,9.82-3.4a17.37,17.37,0,0,0,3.93-4.63c0-.35-16,4.77-16.42,5.26s-8.42,18.46-8.42,18.46C272.13,328.58,279.36,316.93,279.71,316.47Z"/></g><g class="cls-11"><path class="cls-12" d="M103,197.72a43.69,43.69,0,0,0,11.63,44.52c20.57,20.29,47.5,27.6,95.68,26.44s68.22-13,77.49-30.45,0-40.08,0-40.08,8.8,33.48-21,51-86.37,18.49-125.12,4S104.46,207.39,103,197.72Z"/></g><ellipse class="cls-13" cx="159.33" cy="177.99" rx="19.8" ry="10.6" transform="translate(-35.55 316.14) rotate(-83.5)"/><ellipse class="cls-13" cx="237.13" cy="184.16" rx="19.8" ry="10.6" transform="translate(27.3 398.91) rotate(-83.5)"/><g class="cls-9"><path class="cls-6" d="M78.79,307.25s39,68.59,115.85,68.59S311,316.06,311,316.06s-21.28,69.72-110.25,69.72S85.43,329.14,78.79,308.42"/></g><path class="cls-6" d="M205.37,265.09c-29.05,0-68-4.33-88.46-24.95-9.34-9.41-14-21.38-13.91-35.6a82.83,82.83,0,0,1,15.77-48.76,88.66,88.66,0,0,1,52.34-34.3h0c16.33-3.74,34.84-8,63.76,5.57,16.12,7.55,30.56,20.84,40.67,37.4,10.3,16.88,15.4,36.13,14.35,54.19-1,17.25-11.71,30-31.82,37.93C239.26,264,217,265.09,205.37,265.09ZM172.09,125.77a84.18,84.18,0,0,0-49.74,32.59,78.43,78.43,0,0,0-14.95,46.21c-.1,13,4.15,23.93,12.63,32.47,19.41,19.55,57.12,23.65,85.34,23.65,18.22,0,77.83-3.05,80.12-42.3C287.52,183.56,265,146,233,131c-27.54-12.91-44.51-9-60.91-5.26Zm-.49-2.14Z"/><path class="cls-13" d="M187.61,192.18l15,1a3.34,3.34,0,0,1,2.89,4.59c-1.7,4.08-5.13,9.56-11.34,9.29s-8.93-6.33-10-10.69A3.34,3.34,0,0,1,187.61,192.18Z"/><g class="cls-14"><ellipse class="cls-15" cx="159.48" cy="178" rx="48.87" ry="45.49" transform="translate(-35.44 316.3) rotate(-83.5)"/></g><g class="cls-16"><ellipse class="cls-17" cx="237.13" cy="182.4" rx="48.87" ry="45.49" transform="translate(29.04 397.35) rotate(-83.5)"/></g><path class="cls-18" d="M72.31,259.61a22.46,22.46,0,0,1-2.06-13.34A35.26,35.26,0,0,0,58.42,272a18.09,18.09,0,0,1,13.89-12.36Z"/><path class="cls-19" d="M118.88,285.61c-2.07,7.54-4.11,21.06,2.24,34.28,5.84,2.71,10.63,2.45,14.21-.78,6-5.42,7.32-18.41,4.49-26.39C136.24,282.62,121.59,285.06,118.88,285.61Z"/><path class="cls-20" d="M118.47,287.89a.67.67,0,0,1,.07-.31,52.76,52.76,0,0,1,1.38-5.11c-10-4.13-18-10.8-23.43-15.24-3.1-2.57-5.56-4.59-6.86-4.9-3.54-.84-9.81,2.69-10.21,2.92-.72.56-16.76,13.15-17.66,29.91,0,0,0,0,0,0s0,0,0,0c-1.28,7.08,2.9,20.91,2.94,21.05S70,328.66,90.77,328.66h.91c18.75-.31,28.55-4.57,31-5.8C115.48,309.62,116.82,295.64,118.47,287.89Z"/><path class="cls-19" d="M78.83,266a21.41,21.41,0,0,1-6.52-6.43,18.53,18.53,0,0,0-9.59,5.19,18.27,18.27,0,0,0-4.3,7.17,53.61,53.61,0,0,0,3.28,21.51C63.84,279.27,75.52,268.76,78.83,266Z"/><path class="cls-8" d="M93.2,308.87a41.06,41.06,0,0,0,25.72-16.05c.2-1.32.43-2.54.66-3.63a.6.6,0,0,1,.07-.3c.19-.91.4-1.73.59-2.44-14.57-4.18-30.23-17.33-32.36-17.83s-16.61,7.92-16.61,7.92l4.21-5.35c-4.89,5.07-11.67,13.91-12.55,24.47C65.12,302.12,78.05,311.41,93.2,308.87Z"/><path class="cls-8" d="M92.78,326.55c-11.71.37-19.09-2-22.78-3.64,3.76,3.36,10.49,7.06,21.88,7.06h.91c18.74-.32,28.54-4.58,31-5.81a44.67,44.67,0,0,1-2.21-4.73A67.66,67.66,0,0,1,92.78,326.55Z"/><path class="cls-8" d="M124.65,322.63q.31.62.66,1.23c6,2.34,10.76,1.79,14.13-1.66,2.87-2.93,4.42-7.73,4.81-12.76C142.9,314.54,138,323.51,124.65,322.63Z"/><path class="cls-8" d="M142.28,297.84l.72,1a17,17,0,0,0-.69-1.74,9.37,9.37,0,0,0-1.62-2.43c-6.07-2.18-17.37.15-19.9.77a44.14,44.14,0,0,0,.24,14.93C125.6,312.82,141.19,302.48,142.28,297.84Z"/><path class="cls-8" d="M69.38,261.25a35,35,0,0,0-4.45,3.47A39.45,39.45,0,0,0,68.67,277a58.12,58.12,0,0,1,7.19-8.35h0A19.86,19.86,0,0,1,69.38,261.25Z"/><path class="cls-8" d="M118.41,305.25a57.55,57.55,0,0,1,.51-12.43A42.49,42.49,0,0,0,118.41,305.25Z"/><path class="cls-8" d="M64.71,262.93a34.13,34.13,0,0,1,4-3,32.82,32.82,0,0,1-2.6-10.28c-.44.63-.85,1.26-1.25,1.9A49.7,49.7,0,0,0,64.71,262.93Z"/><g class="cls-9"><path class="cls-21" d="M140.92,306.67a32.43,32.43,0,0,0-.51-12l-.68-1.13c-1.43,5.07-18.06,15.54-22.56,12.51a43.41,43.41,0,0,0,3.37,12.55C133.82,320.32,139.25,311.68,140.92,306.67Z"/></g><g class="cls-9"><path class="cls-6" d="M58.42,272a53.61,53.61,0,0,0,3.28,21.51,39.08,39.08,0,0,1,7-16.44,39.79,39.79,0,0,1-2.45-6.25,40.55,40.55,0,0,1-1.51-7.86,19.94,19.94,0,0,0-6.29,9Z"/></g><g class="cls-9"><path class="cls-6" d="M65.33,251.65A34.86,34.86,0,0,0,58.42,272a19.93,19.93,0,0,1,2.84-5.42,20.29,20.29,0,0,1,3.45-3.62,26.64,26.64,0,0,1-.21-6.87A26.11,26.11,0,0,1,65.33,251.65Z"/></g><g class="cls-9"><path class="cls-10" d="M91.67,325.25a67.92,67.92,0,0,0,28.8-7.13,47.3,47.3,0,0,1-3.17-14.18,42.74,42.74,0,0,1,.52-12.43h0s-8.76,13.22-25.73,16.06C76.94,310.1,64,300.82,61.82,294.36c0,.26,0,.53-.06.8,0,0,0,0,0,0s0,0,0,0c-1.28,7.08,2.9,20.91,2.94,21.05a17.1,17.1,0,0,0,4.2,5.31C72.58,323.27,80,325.62,91.67,325.25Z"/></g><g class="cls-11"><path class="cls-12" d="M86.77,267.32c2.13.49,17.79,13.64,32.36,17.82.32-1.19.6-2.1.79-2.67-10-4.13-18-10.8-23.43-15.24-3.1-2.57-5.56-4.59-6.86-4.9-3.54-.84-9.81,2.69-10.21,2.92a51.89,51.89,0,0,0-5,4.63l-4.22,5.36S84.64,266.82,86.77,267.32Z"/></g><g class="cls-11"><path class="cls-12" d="M72.31,259.61a22.62,22.62,0,0,1-2.2-7.73,22.31,22.31,0,0,1,.14-5.61c-.63.66-1.27,1.32-1.9,2-.35.36-.69.73-1,1.1a31.83,31.83,0,0,0,1.48,11.3Z"/></g><g class="cls-11"><path class="cls-12" d="M138.33,289.92c-5.06-6.79-17-4.8-19.45-4.31-.32,1.17-.64,2.48-.93,3.9C120.58,289,132.28,287.12,138.33,289.92Z"/></g><g class="cls-11"><path class="cls-12" d="M121.34,288.18l0,0v0Z"/></g><g class="cls-11"><path class="cls-12" d="M72.31,259.61q-.78.17-1.65.42c-.67.2-1.3.41-1.87.63a24,24,0,0,0,3.26,4.6,24.39,24.39,0,0,0,3.81,3.43h0c1.24-1.19,2.28-2.09,3-2.65A21.41,21.41,0,0,1,72.31,259.61Z"/></g><path class="cls-22" d="M316,262.64a23,23,0,0,0,2.31-9.3,21.88,21.88,0,0,0-.25-4A35.32,35.32,0,0,1,329.89,275,18.08,18.08,0,0,0,316,262.64Z"/><path class="cls-19" d="M269.43,288.64c2.06,7.54,4.1,21.06-2.25,34.28-5.84,2.71-10.62,2.46-14.21-.78-6-5.42-7.32-18.41-4.49-26.39C252.06,285.65,266.71,288.09,269.43,288.64Z"/><path class="cls-23" d="M269.83,290.92a.67.67,0,0,0-.07-.31,52.76,52.76,0,0,0-1.38-5.11c10-4.13,18-10.8,23.43-15.24,3.11-2.57,5.56-4.59,6.86-4.9,3.54-.84,9.81,2.69,10.22,2.92.71.56,16.75,13.15,17.65,29.91l0,.05s0,0,0,0c1.27,7.08-2.91,20.91-2.95,21.05s-5.32,12.36-26.08,12.36h-.91c-18.74-.31-28.55-4.57-31-5.8C272.82,312.65,271.48,298.67,269.83,290.92Z"/><path class="cls-19" d="M309.48,269.07a21.37,21.37,0,0,0,6.51-6.43A18.24,18.24,0,0,1,329.89,275a54,54,0,0,1-3.28,21.51C324.46,282.3,312.78,271.79,309.48,269.07Z"/><g class="cls-9"><path class="cls-21" d="M247.38,309.7a32.43,32.43,0,0,1,.51-12l.68-1.13c1.43,5.07,18.06,15.54,22.56,12.51a43.41,43.41,0,0,1-3.37,12.55C254.48,323.35,249.05,314.71,247.38,309.7Z"/></g><g class="cls-9"><path class="cls-6" d="M329.89,275a54,54,0,0,1-3.28,21.51,39.22,39.22,0,0,0-7-16.44,39.79,39.79,0,0,0,2.45-6.25,40.55,40.55,0,0,0,1.51-7.86,20.27,20.27,0,0,1,4.46,5.12A21.24,21.24,0,0,1,329.89,275Z"/></g><g class="cls-9"><path class="cls-6" d="M323,254.68A35,35,0,0,1,329.89,275a20.13,20.13,0,0,0-6.3-9,26.64,26.64,0,0,0,.21-6.87A26.31,26.31,0,0,0,323,254.68Z"/></g><g class="cls-24"><path class="cls-10" d="M296.63,328.28a68,68,0,0,1-28.8-7.13A47.3,47.3,0,0,0,271,307a42.35,42.35,0,0,0-.52-12.43h0s8.76,13.22,25.73,16.06c15.15,2.53,28.08-6.75,30.27-13.21,0,.26,0,.53.06.8l0,.05s0,0,0,0c1.27,7.08-2.91,20.91-2.95,21.05a16.91,16.91,0,0,1-4.2,5.31C315.72,326.3,308.34,328.65,296.63,328.28Z"/></g><g class="cls-11"><path class="cls-12" d="M301.53,270.35c-2.13.49-17.79,13.64-32.36,17.82-.32-1.19-.6-2.1-.79-2.67,10-4.13,18-10.8,23.43-15.24,3.11-2.57,5.56-4.59,6.86-4.9,3.54-.84,9.81,2.69,10.22,2.92a53.88,53.88,0,0,1,5,4.63l4.22,5.36S303.66,269.85,301.53,270.35Z"/></g><g class="cls-11"><path class="cls-12" d="M316,262.64a22.82,22.82,0,0,0,2.21-7.73,22.25,22.25,0,0,0-.15-5.61c.64.66,1.27,1.32,1.9,2,.35.36.69.73,1,1.1a30.86,30.86,0,0,1-.09,4.45,31.61,31.61,0,0,1-1.38,6.85Z"/></g><g class="cls-11"><path class="cls-12" d="M250,293c5.07-6.79,17-4.8,19.46-4.31.32,1.17.63,2.48.92,3.91C267.72,292,256,290.15,250,293Z"/></g><g class="cls-11"><path class="cls-12" d="M316,262.64q.78.17,1.65.42c.68.2,1.3.41,1.88.63a24.67,24.67,0,0,1-7.07,8h0c-1.25-1.19-2.29-2.09-3-2.65A21.37,21.37,0,0,0,316,262.64Z"/></g><path class="cls-8" d="M294.94,308.87c-17-2.84-25.72-16.05-25.73-16.05-.19-1.32-.42-2.54-.65-3.63a.6.6,0,0,0-.07-.3c-.2-.91-.4-1.73-.59-2.44,14.57-4.18,30.23-17.33,32.36-17.83s16.61,7.92,16.61,7.92l-4.21-5.35c4.89,5.07,11.67,13.91,12.55,24.47C323,302.12,310.09,311.41,294.94,308.87Z"/><path class="cls-8" d="M295.36,326.55c11.71.37,19.09-2,22.78-3.64-3.76,3.36-10.49,7.06-21.88,7.06h-.91c-18.74-.32-28.55-4.58-31-5.81a44.67,44.67,0,0,0,2.21-4.73A67.66,67.66,0,0,0,295.36,326.55Z"/><path class="cls-8" d="M263.49,322.63q-.32.62-.66,1.23c-6,2.34-10.76,1.79-14.13-1.66-2.87-2.93-4.42-7.73-4.81-12.76C245.24,314.54,250.13,323.51,263.49,322.63Z"/><path class="cls-8" d="M245.88,296.43l-.74,1.08a18.31,18.31,0,0,1,.71-1.93,10.48,10.48,0,0,1,1.65-2.7c6.22-2.42,17.78.17,20.37.86a53.3,53.3,0,0,1-.24,16.56C262.94,313.05,247,301.58,245.88,296.43Z"/><path class="cls-8" d="M269.73,305.25a56.87,56.87,0,0,0-.52-12.43A42.32,42.32,0,0,1,269.73,305.25Z"/><path class="cls-8" d="M323.43,262.93a34.13,34.13,0,0,0-4-3,33.11,33.11,0,0,0,2.6-10.28c.43.63.85,1.26,1.25,1.9A49.7,49.7,0,0,1,323.43,262.93Z"/><g class="cls-11"><path class="cls-12" d="M266.8,288.18l0,0v0Z"/></g><path class="cls-25" d="M195.94,86.65c9-3.92,3.73-64.52-27.16-76.9-9.65-3.86-23.37-3.66-26.81,2.33-2.22,3.87-.1,10,17.94,33.77C181.43,74.15,192.19,88.3,195.94,86.65Z"/><circle class="cls-26" cx="198.14" cy="103.87" r="11.03"/><path class="cls-27" d="M167.48,313.16c1.16,10.31,9.56,19.24,20.85,21.64a22.56,22.56,0,0,1-9.65-1.84c-10.66-4.67-13.34-16.19-13.59-17.38-.33-1.52-2.37-11.86,4.74-20.85,7.75-9.81,19.64-9.51,20.86-9.46C176,287.38,166,300.38,167.48,313.16Z"/><circle class="cls-28" cx="193.21" cy="310.21" r="25.07"/><path class="cls-12" d="M192.52,311.77c3-.85,6.67-2.91,6.45-6.57-.19-3.2-3.75-5.27-6.74-4.84C185.26,301.35,183.44,314.29,192.52,311.77Z"/><path class="cls-29" d="M212.17,311.47a21.43,21.43,0,0,1-40.44-1.58,23.59,23.59,0,0,0,6,15.8c1.44,1.57,6.07,6.59,13.59,6.95a19.47,19.47,0,0,0,13.58-5.05C211.86,321.53,212.14,313,212.17,311.47Z"/></svg>